<svg width="78" height="61" viewBox="0 0 78 61" fill="none" xmlns="http://www.w3.org/2000/svg">
<path d="M12.086 52.206H10.182V57H7.445V45.1H10.182V49.911H12.154L15.282 45.1H18.189L14.296 50.846L18.308 57H15.18L12.086 52.206ZM29.7131 50.795C30.4385 51.0103 30.9938 51.3617 31.3791 51.849C31.7645 52.3363 31.9571 52.937 31.9571 53.651C31.9571 54.705 31.5548 55.5267 30.7501 56.116C29.9568 56.7053 28.8178 57 27.3331 57H21.4681V45.1H27.0101C28.3928 45.1 29.4695 45.3663 30.2401 45.899C31.0108 46.4317 31.3961 47.191 31.3961 48.177C31.3961 48.7663 31.2488 49.2877 30.9541 49.741C30.6595 50.183 30.2458 50.5343 29.7131 50.795ZM24.2051 50.03H26.7721C27.3728 50.03 27.8261 49.911 28.1321 49.673C28.4381 49.4237 28.5911 49.061 28.5911 48.585C28.5911 48.1203 28.4325 47.7633 28.1151 47.514C27.8091 47.2647 27.3615 47.14 26.7721 47.14H24.2051V50.03ZM27.2311 54.96C28.5231 54.96 29.1691 54.45 29.1691 53.43C29.1691 52.444 28.5231 51.951 27.2311 51.951H24.2051V54.96H27.2311ZM46.6341 52.206H44.9001V57H42.1971V52.206H40.4291L37.7601 57H34.5811L38.1511 50.778L34.8021 45.1H37.7091L40.3781 49.911H42.1971V45.1H44.9001V49.911H46.6681L49.3541 45.1H52.2611L48.9291 50.778L52.4821 57H49.3031L46.6341 52.206ZM68.2448 54.756V59.465H65.6948V57H57.2968V59.465H54.7468L54.7638 54.756H55.2398C55.9538 54.7333 56.4582 54.212 56.7528 53.192C57.0475 52.172 57.2288 50.7157 57.2968 48.823L57.4328 45.1H66.5788V54.756H68.2448ZM59.7278 49.078C59.6712 50.4947 59.5522 51.6847 59.3708 52.648C59.1895 53.6 58.9118 54.3027 58.5378 54.756H63.8588V47.344H59.7788L59.7278 49.078Z" fill="#111111"/>
<path d="M24.0405 17.2686H59.5935V32.1669H24.0405V17.2686Z" fill="#9F9F9F"/>
<rect y="23" width="2" height="2" fill="#9F9F9F"/>
<rect x="1" y="25" width="1" height="3" fill="#9F9F9F"/>
<path fill-rule="evenodd" clip-rule="evenodd" d="M58.9098 17.9458H24.7242V31.4897H58.9098V17.9458ZM24.0405 17.2686V32.1669H59.5935V17.2686H24.0405Z" fill="#575757"/>
<path d="M42 15.5484C42 14.6932 42.7069 14 43.5789 14H45.4211C46.2931 14 47 14.6932 47 15.5484V18H42V15.5484Z" fill="#9F9F9F"/>
<path fill-rule="evenodd" clip-rule="evenodd" d="M45.4211 14.6452H43.5789C43.0703 14.6452 42.6579 15.0495 42.6579 15.5484V17.3548H46.3421V15.5484C46.3421 15.0495 45.9297 14.6452 45.4211 14.6452ZM43.5789 14C42.7069 14 42 14.6932 42 15.5484V18H47V15.5484C47 14.6932 46.2931 14 45.4211 14H43.5789Z" fill="#575757"/>
<path d="M51 11.8361C51 10.822 51.8125 10 52.8148 10H56.1852C57.1875 10 58 10.822 58 11.8361V18H51V11.8361Z" fill="#9F9F9F"/>
<path fill-rule="evenodd" clip-rule="evenodd" d="M56.1852 10.6557H52.8148C52.1705 10.6557 51.6481 11.1842 51.6481 11.8361V17.3443H57.3519V11.8361C57.3519 11.1842 56.8295 10.6557 56.1852 10.6557ZM52.8148 10C51.8125 10 51 10.822 51 11.8361V18H58V11.8361C58 10.822 57.1875 10 56.1852 10H52.8148Z" fill="#575757"/>
<path fill-rule="evenodd" clip-rule="evenodd" d="M25.2424 7.0026C25.3717 7.01402 25.5062 7.06281 25.5868 7.14357C25.7245 7.28169 26 7.9723 26 8.45573H25.2424V9.19803C25.2864 9.44795 25.3501 9.89291 25.3802 10.1119V16.9242L24.3982 17.4348V32H2.51515V9.82815C2.37891 9.61447 1.84398 9.3605 1.46884 9.20995H1C1.36731 8.65746 2.14325 7.49724 2.30854 7.27625C2.44639 7.09194 2.65769 7.02291 2.79063 7.00508V7H2.8595H25.1823H25.1864H25.2424V7.0026Z" fill="#9F9F9F"/>
<path fill-rule="evenodd" clip-rule="evenodd" d="M2.09649 6.43335H25.3121V6.51604C25.4002 6.5541 25.4851 6.60708 25.5564 6.67846C25.634 6.75614 25.6978 6.87004 25.7449 6.96546C25.7977 7.07244 25.8507 7.20081 25.8978 7.33775C25.99 7.60553 26.0722 7.94077 26.0722 8.23739V8.58327H25.3121V8.95103C25.3571 9.21235 25.4181 9.63832 25.4471 9.84914L25.4503 9.87263V16.9303L24.4652 17.4418V32.1669H1.82012V9.74673C1.81122 9.73948 1.8013 9.73174 1.79031 9.72353C1.73198 9.67999 1.65509 9.63194 1.56411 9.58184C1.40245 9.49281 1.21498 9.40746 1.04842 9.33875H0L0.358069 8.80101C0.72245 8.25379 1.50862 7.07976 1.68193 6.84841C1.80205 6.68805 1.95379 6.58741 2.09649 6.52556V6.43335ZM2.5029 7.12511H24.9063L24.9075 7.12511H24.9093L24.9105 7.12511H24.922L24.9363 7.12638C24.9702 7.12936 25.0036 7.13732 25.0308 7.14806C25.0514 7.15622 25.0623 7.16351 25.0662 7.1664C25.0665 7.16697 25.0673 7.16819 25.0686 7.17013C25.0753 7.18042 25.0954 7.21096 25.1255 7.2719C25.1634 7.34866 25.2054 7.44944 25.2446 7.56326C25.2819 7.67139 25.3139 7.78358 25.3375 7.89151H24.6212V9.01119L24.6264 9.041C24.6678 9.2758 24.7281 9.69394 24.7594 9.92012V16.5098L23.7742 17.0213V31.4751H2.51106V9.51098L2.45665 9.42579C2.38914 9.32007 2.29088 9.23433 2.20336 9.16899C2.11086 9.09993 2.00444 9.03482 1.89711 8.97572C1.69117 8.8623 1.46014 8.75914 1.26893 8.6817C1.65078 8.1115 2.11568 7.42232 2.23468 7.26346C2.29689 7.18042 2.40579 7.13812 2.48778 7.12714L2.5029 7.12511Z" fill="#575757"/>
<rect x="6" y="11" width="12" height="10" fill="white"/>
<path fill-rule="evenodd" clip-rule="evenodd" d="M22.3874 3.04736H21.9691V3.52795C21.8869 3.54751 21.7878 3.5772 21.6903 3.61702C21.4948 3.69682 21.3058 3.81732 21.272 3.97851V5.30872H21.5509V5.84081H21.1326C21.0556 5.84081 20.9932 5.90036 20.9932 5.97383C20.9932 6.0473 21.0556 6.10685 21.1326 6.10685H21.5509V6.77196H22.8057V6.10685H23.2239C23.3009 6.10685 23.3634 6.0473 23.3634 5.97383C23.3634 5.90036 23.3009 5.84081 23.2239 5.84081H22.8057V5.30872H23.0845V3.912C23.0222 3.82288 22.8744 3.67404 22.6662 3.58551C22.6079 3.56072 22.5449 3.54065 22.4776 3.52795C22.4483 3.52242 22.4182 3.51829 22.3874 3.51577V3.04736ZM21.9691 4.22663C21.9814 4.22171 21.9943 4.21678 22.008 4.2119C22.054 4.19542 22.0997 4.18237 22.1378 4.1733L22.1702 4.16559L22.328 4.17846C22.3436 4.17974 22.3637 4.18451 22.3874 4.19515V4.64362H21.9691V4.22663Z" fill="#575757"/>
<rect x="17" y="11" width="1" height="1" fill="#9F9F9F"/>
<path d="M8.07454 20.2953V11.1738L6.44067 11.312L5.21526 12.5559L5.0791 20.088L5.62373 21.3318H17.9459V20.2953H8.07454Z" fill="#8A8A8A"/>
<path fill-rule="evenodd" clip-rule="evenodd" d="M4 13.2113C4 11.99 4.97475 11 6.17716 11H16.3826C17.585 11 18.5598 11.99 18.5598 13.2113V19.845C18.5598 21.0663 17.585 22.0563 16.3826 22.0563H10.6676V30.7631C10.6676 31.0685 10.4239 31.316 10.1233 31.316H5.63287C5.33227 31.316 5.08858 31.0685 5.08858 30.7631V21.7605C4.43783 21.3781 4 20.6635 4 19.845V13.2113ZM7.26574 21.3653H10.6676H15.4301C16.6325 21.3653 17.6073 20.3753 17.6073 19.154V13.7641C17.6073 12.5428 16.6325 11.5528 15.4301 11.5528H7.26574C6.06333 11.5528 5.08858 12.5428 5.08858 13.7641V19.154C5.08858 20.3753 6.06333 21.3653 7.26574 21.3653Z" fill="#8A8A8A"/>
<path fill-rule="evenodd" clip-rule="evenodd" d="M15.7757 21.2041C17.0145 21.2041 18.0187 20.2295 18.0187 19.0272V13.7211C18.0187 12.7859 17.411 11.9884 16.558 11.6803C16.3144 11.5923 16.0508 11.5442 15.7757 11.5442H7.36449C7.08935 11.5442 6.82578 11.5923 6.58221 11.6803C5.72917 11.9884 5.1215 12.7859 5.1215 13.7211V19.0272C5.1215 20.2295 6.12572 21.2041 7.36449 21.2041H15.7757ZM5.82243 21.4615C6.2709 21.7297 6.79908 21.8844 7.36449 21.8844H10.1682V30.3197H5.82243V21.4615ZM6.24299 11C5.00422 11 4 11.9746 4 13.1769V19.7075C4 20.5132 4.45106 21.2167 5.1215 21.5931V30.4558C5.1215 30.7563 5.37255 31 5.68224 31H10.3084C10.6181 31 10.8692 30.7563 10.8692 30.4558V21.8844H16.757C17.9958 21.8844 19 20.9097 19 19.7075V13.1769C19 11.9746 17.9958 11 16.757 11H6.24299Z" fill="#575757"/>
<path d="M24.0405 20.9932H59.2549V21.6704H24.0405V20.9932Z" fill="#575757"/>
<path d="M24.7178 19.8081C24.7178 19.7146 24.8097 19.6388 24.923 19.6388H57.3566C57.47 19.6388 57.5619 19.7146 57.5619 19.8081C57.5619 19.9016 57.47 19.9774 57.3566 19.9774H24.9231C24.8097 19.9774 24.7178 19.9016 24.7178 19.8081Z" fill="#575757"/>
<path fill-rule="evenodd" clip-rule="evenodd" d="M1 24.9886V27.4265H1.67308V23.3634H0.697116V24.9886H1ZM0 23.0925C0 22.8681 0.187266 22.6862 0.41827 22.6862H2.3702V28.1037H0.83654C0.528534 28.1037 0.278847 27.8612 0.278847 27.562V25.6658H0V23.0925Z" fill="#575757"/>
<path d="M4 32H18V37.6471C18 37.842 17.7518 38 17.4455 38H4.55446C4.24824 38 4 37.842 4 37.6471V32Z" fill="#9F9F9F"/>
<path fill-rule="evenodd" clip-rule="evenodd" d="M17.3069 32.4412H4.69307V37.5588H17.3069V32.4412ZM4 32V37.6471C4 37.842 4.24824 38 4.55446 38H17.4455C17.7518 38 18 37.842 18 37.6471V32H4Z" fill="#575757"/>
<path d="M43.851 35.0948C43.851 38.4608 41.198 41.1896 37.9255 41.1896C34.6529 41.1896 32 38.4608 32 35.0948C32 31.7287 34.6529 29 37.9255 29C41.198 29 43.851 31.7287 43.851 35.0948Z" fill="#9F9F9F"/>
<path d="M28.851 35.0948C28.851 38.4608 26.198 41.1896 22.9255 41.1896C19.6529 41.1896 17 38.4608 17 35.0948C17 31.7287 19.6529 29 22.9255 29C26.198 29 28.851 31.7287 28.851 35.0948Z" fill="#9F9F9F"/>
<path fill-rule="evenodd" clip-rule="evenodd" d="M37.9255 40.497C40.8262 40.497 43.1776 38.0783 43.1776 35.0948C43.1776 32.1112 40.8262 29.6926 37.9255 29.6926C35.0248 29.6926 32.6734 32.1112 32.6734 35.0948C32.6734 38.0783 35.0248 40.497 37.9255 40.497ZM37.9255 41.1896C41.198 41.1896 43.851 38.4608 43.851 35.0948C43.851 31.7287 41.198 29 37.9255 29C34.6529 29 32 31.7287 32 35.0948C32 38.4608 34.6529 41.1896 37.9255 41.1896Z" fill="#575757"/>
<path fill-rule="evenodd" clip-rule="evenodd" d="M22.9255 40.497C25.8262 40.497 28.1776 38.0783 28.1776 35.0948C28.1776 32.1112 25.8262 29.6926 22.9255 29.6926C20.0248 29.6926 17.6734 32.1112 17.6734 35.0948C17.6734 38.0783 20.0248 40.497 22.9255 40.497ZM22.9255 41.1896C26.198 41.1896 28.851 38.4608 28.851 35.0948C28.851 31.7287 26.198 29 22.9255 29C19.6529 29 17 31.7287 17 35.0948C17 38.4608 19.6529 41.1896 22.9255 41.1896Z" fill="#575757"/>
<path d="M58.851 35.0948C58.851 38.4608 56.198 41.1896 52.9255 41.1896C49.6529 41.1896 47 38.4608 47 35.0948C47 31.7287 49.6529 29 52.9255 29C56.198 29 58.851 31.7287 58.851 35.0948Z" fill="#9F9F9F"/>
<path fill-rule="evenodd" clip-rule="evenodd" d="M52.9255 40.497C55.8262 40.497 58.1776 38.0783 58.1776 35.0948C58.1776 32.1112 55.8262 29.6926 52.9255 29.6926C50.0248 29.6926 47.6734 32.1112 47.6734 35.0948C47.6734 38.0783 50.0248 40.497 52.9255 40.497ZM52.9255 41.1896C56.198 41.1896 58.851 38.4608 58.851 35.0948C58.851 31.7287 56.198 29 52.9255 29C49.6529 29 47 31.7287 47 35.0948C47 38.4608 49.6529 41.1896 52.9255 41.1896Z" fill="#575757"/>
<path fill-rule="evenodd" clip-rule="evenodd" d="M37.9256 39.1426C40.0676 39.1426 41.8041 37.4061 41.8041 35.2641C41.8041 33.122 40.0676 31.3856 37.9256 31.3856C35.7835 31.3856 34.0471 33.122 34.0471 35.2641C34.0471 37.4061 35.7835 39.1426 37.9256 39.1426ZM37.9256 39.8352C40.4501 39.8352 42.4967 37.7886 42.4967 35.2641C42.4967 32.7395 40.4501 30.693 37.9256 30.693C35.401 30.693 33.3545 32.7395 33.3545 35.2641C33.3545 37.7886 35.401 39.8352 37.9256 39.8352Z" fill="#575757"/>
<path fill-rule="evenodd" clip-rule="evenodd" d="M22.9256 39.1426C25.0676 39.1426 26.8041 37.4061 26.8041 35.2641C26.8041 33.122 25.0676 31.3856 22.9256 31.3856C20.7835 31.3856 19.0471 33.122 19.0471 35.2641C19.0471 37.4061 20.7835 39.1426 22.9256 39.1426ZM22.9256 39.8352C25.4501 39.8352 27.4967 37.7886 27.4967 35.2641C27.4967 32.7395 25.4501 30.693 22.9256 30.693C20.401 30.693 18.3545 32.7395 18.3545 35.2641C18.3545 37.7886 20.401 39.8352 22.9256 39.8352Z" fill="#575757"/>
<path fill-rule="evenodd" clip-rule="evenodd" d="M52.9256 39.1426C55.0676 39.1426 56.8041 37.4061 56.8041 35.2641C56.8041 33.122 55.0676 31.3856 52.9256 31.3856C50.7835 31.3856 49.0471 33.122 49.0471 35.2641C49.0471 37.4061 50.7835 39.1426 52.9256 39.1426ZM52.9256 39.8352C55.4501 39.8352 57.4967 37.7886 57.4967 35.2641C57.4967 32.7395 55.4501 30.693 52.9256 30.693C50.401 30.693 48.3545 32.7395 48.3545 35.2641C48.3545 37.7886 50.401 39.8352 52.9256 39.8352Z" fill="#575757"/>
<path fill-rule="evenodd" clip-rule="evenodd" d="M65.6778 0H61.6984L62.1173 15.6245L60.4524 17.6824H59.5341C59.3799 17.6824 59.2549 17.8042 59.2549 17.9545V31.8283H66.7948H67.7722H72.2403C72.5488 31.8283 72.7989 31.5848 72.7989 31.2843V24.7554C72.7989 24.4549 72.5488 24.2113 72.2403 24.2113H67.7722V17.9545C67.7722 17.8042 67.6472 17.6824 67.493 17.6824H66.8459L65.1193 15.6245L65.6778 0Z" fill="#9F9F9F"/>
<path fill-rule="evenodd" clip-rule="evenodd" d="M62.8218 15.8524L60.7911 18.3625H59.953V31.1483H72.1007V24.8914H67.0741V18.3625H66.5148L64.4124 15.8567L64.9549 0.680093H62.415L62.8218 15.8524ZM61.6984 0H65.6778L65.1193 15.6245L66.8459 17.6824H67.493C67.6472 17.6824 67.7722 17.8042 67.7722 17.9545V24.2113H72.2403C72.5488 24.2113 72.7989 24.4549 72.7989 24.7554V31.2843C72.7989 31.5848 72.5488 31.8283 72.2403 31.8283H59.2549V17.9545C59.2549 17.8042 59.3799 17.6824 59.5341 17.6824H60.4524L62.1173 15.6245L61.6984 0Z" fill="#575757"/>
<path d="M59 31H71V36.3824C71 36.7235 70.5726 37 70.0455 37H59V31Z" fill="#9F9F9F"/>
<path fill-rule="evenodd" clip-rule="evenodd" d="M70.3182 31.4412H59.6818V36.5588H70.0455C70.1961 36.5588 70.3182 36.4798 70.3182 36.3824V31.4412ZM59 31V37H70.0455C70.5726 37 71 36.7235 71 36.3824V31H59Z" fill="#575757"/>
<path fill-rule="evenodd" clip-rule="evenodd" d="M74.4848 31.6472H72.0722V30.9609H74.4848V30.4118C74.4848 30.1844 74.6648 30 74.8868 30C75.1089 30 75.2889 30.1844 75.2889 30.4118V32.3336C75.2889 32.561 75.1089 32.7454 74.8868 32.7454C74.6648 32.7454 74.4848 32.561 74.4848 32.3336V31.6472ZM71 32.8827V34.2554H76.6292V34.6672C76.6292 34.8946 76.8092 35.079 77.0313 35.079C77.2534 35.079 77.4334 34.8946 77.4334 34.6672V32.4709C77.4334 32.2434 77.2534 32.0591 77.0313 32.0591C76.8092 32.0591 76.6292 32.2434 76.6292 32.4709V32.8827H71Z" fill="#575757"/>
</svg>
